<svg width="50" height="50" viewBox="0 0 50 50" fill="none" xmlns="http://www.w3.org/2000/svg">
<g filter="url(#filter0_d)">
<circle cx="25" cy="20" r="20" fill="#337AB7"/>
<path fill-rule="evenodd" clip-rule="evenodd" d="M25.0003 11.7949C25.5667 11.7949 26.0259 12.2541 26.0259 12.8206V27.1795C26.0259 27.746 25.5667 28.2052 25.0003 28.2052C24.4338 28.2052 23.9746 27.746 23.9746 27.1795V12.8206C23.9746 12.2541 24.4338 11.7949 25.0003 11.7949Z" fill="white"/>
<path fill-rule="evenodd" clip-rule="evenodd" d="M16.7969 20.0003C16.7969 19.4338 17.2561 18.9746 17.8225 18.9746H32.1815C32.7479 18.9746 33.2071 19.4338 33.2071 20.0003C33.2071 20.5667 32.7479 21.0259 32.1815 21.0259H17.8225C17.2561 21.0259 16.7969 20.5667 16.7969 20.0003Z" fill="white"/>
</g>
<defs>
<filter id="filter0_d" x="0" y="0" width="50" height="50" filterUnits="userSpaceOnUse" color-interpolation-filters="sRGB">
<feFlood flood-opacity="0" result="BackgroundImageFix"/>
<feColorMatrix in="SourceAlpha" type="matrix" values="0 0 0 0 0 0 0 0 0 0 0 0 0 0 0 0 0 0 127 0"/>
<feOffset dy="5"/>
<feGaussianBlur stdDeviation="2.5"/>
<feColorMatrix type="matrix" values="0 0 0 0 0 0 0 0 0 0 0 0 0 0 0 0 0 0 0.1 0"/>
<feBlend mode="normal" in2="BackgroundImageFix" result="effect1_dropShadow"/>
<feBlend mode="normal" in="SourceGraphic" in2="effect1_dropShadow" result="shape"/>
</filter>
</defs>
</svg>
