<svg width="58" height="58" viewBox="0 0 58 58" fill="none" xmlns="http://www.w3.org/2000/svg">
<g filter="url(#filter0_d)">
<path d="M5 24C5 10.7452 15.7452 0 29 0C42.2548 0 53 10.7452 53 24C53 37.2548 42.2548 48 29 48C15.7452 48 5 37.2548 5 24Z" fill="white"/>
<path d="M12 24C12 14.6112 19.6112 7 29 7C38.3888 7 46 14.6112 46 24C46 33.3888 38.3888 41 29 41C19.6112 41 12 33.3888 12 24Z" fill="#333333"/>
<path d="M25.5992 34.2001C27.477 34.2001 28.9992 32.6779 28.9992 30.8001V27.4001H25.5992C23.7214 27.4001 22.1992 28.9224 22.1992 30.8001C22.1992 32.6779 23.7214 34.2001 25.5992 34.2001Z" fill="#0ACF83"/>
<path d="M22.1992 24.0001C22.1992 22.1223 23.7214 20.6001 25.5992 20.6001H28.9992V27.4001H25.5992C23.7214 27.4001 22.1992 25.8779 22.1992 24.0001Z" fill="#A259FF"/>
<path d="M22.1992 17.2C22.1992 15.3223 23.7214 13.8 25.5992 13.8H28.9992V20.6H25.5992C23.7214 20.6 22.1992 19.0778 22.1992 17.2Z" fill="#F24E1E"/>
<path d="M29 13.8H32.4C34.2778 13.8 35.8 15.3223 35.8 17.2C35.8 19.0778 34.2778 20.6 32.4 20.6H29V13.8Z" fill="#FF7262"/>
<path d="M35.8 24.0001C35.8 25.8779 34.2778 27.4001 32.4 27.4001C30.5222 27.4001 29 25.8779 29 24.0001C29 22.1223 30.5222 20.6001 32.4 20.6001C34.2778 20.6001 35.8 22.1223 35.8 24.0001Z" fill="#1ABCFE"/>
</g>
<defs>
<filter id="filter0_d" x="0" y="0" width="58" height="58" filterUnits="userSpaceOnUse" color-interpolation-filters="sRGB">
<feFlood flood-opacity="0" result="BackgroundImageFix"/>
<feColorMatrix in="SourceAlpha" type="matrix" values="0 0 0 0 0 0 0 0 0 0 0 0 0 0 0 0 0 0 127 0"/>
<feOffset dy="5"/>
<feGaussianBlur stdDeviation="2.5"/>
<feColorMatrix type="matrix" values="0 0 0 0 0 0 0 0 0 0 0 0 0 0 0 0 0 0 0.05 0"/>
<feBlend mode="normal" in2="BackgroundImageFix" result="effect1_dropShadow"/>
<feBlend mode="normal" in="SourceGraphic" in2="effect1_dropShadow" result="shape"/>
</filter>
</defs>
</svg>
