<svg width="32" height="32" viewBox="0 0 32 32" fill="none" xmlns="http://www.w3.org/2000/svg">
<path d="M0 16C0 7.16347 7.16347 0 16 0C24.8365 0 32 7.16347 32 16C32 24.8365 24.8365 32 16 32C7.16347 32 0 24.8365 0 16Z" fill="#333333"/>
<path d="M12.7996 25.6C14.5669 25.6 15.9996 24.1673 15.9996 22.4V19.2H12.7996C11.0323 19.2 9.59961 20.6326 9.59961 22.4C9.59961 24.1673 11.0323 25.6 12.7996 25.6Z" fill="#0ACF83"/>
<path d="M9.59961 15.9998C9.59961 14.2325 11.0323 12.7998 12.7996 12.7998H15.9996V19.1998H12.7996C11.0323 19.1998 9.59961 17.7671 9.59961 15.9998Z" fill="#A259FF"/>
<path d="M9.59961 9.5999C9.59961 7.83259 11.0323 6.3999 12.7996 6.3999H15.9996V12.7999H12.7996C11.0323 12.7999 9.59961 11.3672 9.59961 9.5999Z" fill="#F24E1E"/>
<path d="M16 6.3999H19.2C20.9673 6.3999 22.4 7.83259 22.4 9.5999C22.4 11.3672 20.9673 12.7999 19.2 12.7999H16V6.3999Z" fill="#FF7262"/>
<path d="M22.4 15.9998C22.4 17.7671 20.9673 19.1998 19.2 19.1998C17.4327 19.1998 16 17.7671 16 15.9998C16 14.2325 17.4327 12.7998 19.2 12.7998C20.9673 12.7998 22.4 14.2325 22.4 15.9998Z" fill="#1ABCFE"/>
</svg>
