<svg width="41" height="41" viewBox="0 0 41 41" fill="none" xmlns="http://www.w3.org/2000/svg">
<circle opacity="0.2" cx="20.5" cy="20.5" r="20.5" fill="#F2994A"/>
<g clip-path="url(#clip0)">
<path fill-rule="evenodd" clip-rule="evenodd" d="M10.4645 23.4645C11.4021 22.5268 12.6739 22 14 22H22C23.3261 22 24.5979 22.5268 25.5355 23.4645C26.4732 24.4021 27 25.6739 27 27V29C27 29.5523 26.5523 30 26 30C25.4477 30 25 29.5523 25 29V27C25 26.2044 24.6839 25.4413 24.1213 24.8787C23.5587 24.3161 22.7956 24 22 24H14C13.2044 24 12.4413 24.3161 11.8787 24.8787C11.3161 25.4413 11 26.2044 11 27V29C11 29.5523 10.5523 30 10 30C9.44772 30 9 29.5523 9 29V27C9 25.6739 9.52678 24.4021 10.4645 23.4645Z" fill="#F2994A"/>
<path fill-rule="evenodd" clip-rule="evenodd" d="M18 12C16.3431 12 15 13.3431 15 15C15 16.6569 16.3431 18 18 18C19.6569 18 21 16.6569 21 15C21 13.3431 19.6569 12 18 12ZM13 15C13 12.2386 15.2386 10 18 10C20.7614 10 23 12.2386 23 15C23 17.7614 20.7614 20 18 20C15.2386 20 13 17.7614 13 15Z" fill="#F2994A"/>
<path fill-rule="evenodd" clip-rule="evenodd" d="M28.032 22.8801C28.1701 22.3454 28.7155 22.0238 29.2502 22.1619C30.3229 22.4388 31.2732 23.0642 31.9519 23.9398C32.6307 24.8153 32.9994 25.8915 33.0002 26.9994L33.0002 29.0001C33.0002 29.5524 32.5525 30.0001 32.0002 30.0001C31.448 30.0001 31.0002 29.5524 31.0002 29.0001L31.0002 27.0009C31.0002 27.0008 31.0002 27.001 31.0002 27.0009C30.9997 26.3363 30.7784 25.6904 30.3713 25.1651C29.964 24.6398 29.3938 24.2645 28.7502 24.0984C28.2155 23.9603 27.8939 23.4149 28.032 22.8801Z" fill="#F2994A"/>
<path fill-rule="evenodd" clip-rule="evenodd" d="M24.0315 10.8821C24.1685 10.3471 24.7133 10.0244 25.2483 10.1614C26.3238 10.4367 27.2771 11.0623 27.9578 11.9393C28.6386 12.8163 29.0081 13.8949 29.0081 15.0051C29.0081 16.1153 28.6386 17.194 27.9578 18.071C27.2771 18.948 26.3238 19.5735 25.2483 19.8489C24.7133 19.9859 24.1685 19.6632 24.0315 19.1282C23.8945 18.5931 24.2172 18.0484 24.7522 17.9114C25.3975 17.7461 25.9695 17.3708 26.3779 16.8446C26.7864 16.3184 27.0081 15.6713 27.0081 15.0051C27.0081 14.339 26.7864 13.6918 26.3779 13.1656C25.9695 12.6394 25.3975 12.2641 24.7522 12.0989C24.2172 11.9619 23.8945 11.4171 24.0315 10.8821Z" fill="#F2994A"/>
</g>
<defs>
<clipPath id="clip0">
<rect width="24" height="24" fill="white" transform="translate(9 8)"/>
</clipPath>
</defs>
</svg>
