<svg width="79" height="130" viewBox="0 0 79 130" fill="none" xmlns="http://www.w3.org/2000/svg">
<path d="M14.9466 0.780567C14.1992 2.02613 14.1992 3.02258 14.1992 5.01547C14.1992 17.7202 14.9466 31.9196 24.4128 43.877C30.6406 51.8485 46.0856 67.0444 51.3169 76.5106C58.0429 88.7171 61.0323 96.1905 62.2779 103.166C62.7761 105.906 63.2743 107.151 64.769 107.151C66.0145 107.151 67.2601 106.155 67.5092 102.917C68.5057 94.6958 69.0039 84.2331 66.2637 75.2651C62.2779 62.5604 53.8081 50.3539 39.3596 36.4036C27.6513 25.1936 21.4235 15.2291 19.4306 4.26814C19.1815 3.02258 19.1815 2.27524 18.4341 1.27879C16.9395 -0.714105 15.1957 0.033231 14.9466 0.780567Z" fill="#344762"/>
<path d="M78.2199 19.964C77.7217 19.2167 76.227 18.4694 75.2306 19.964C74.4833 20.9605 74.4833 21.4587 74.2342 22.7043C72.4904 32.1705 67.259 40.8894 57.2945 50.6048C60.2839 55.3379 62.775 60.0711 64.7679 64.5551C66.7608 62.3131 68.5046 60.3202 69.9993 58.5764C78.22 47.8646 79.2164 35.1599 78.9673 23.7007C78.9673 21.9569 78.9673 21.2096 78.2199 19.964ZM32.1342 86.4769C29.6431 94.6976 30.1413 104.164 30.8887 111.388C31.1378 114.377 32.3833 115.125 33.3798 115.125C34.8744 115.125 35.3727 113.879 35.6218 111.637C36.8673 105.409 39.3585 98.6834 45.5863 87.7225C46.8318 85.4805 48.8247 82.9894 50.8176 80.2491C48.3265 76.5125 44.8389 72.5267 41.1022 68.2918C37.1165 74.5196 34.1271 80.4983 32.1342 86.4769Z" fill="#337AB7"/>
<path d="M25.1603 58.8208C13.452 47.6107 7.22425 37.6462 5.23135 26.6853C4.98224 25.4397 4.98223 24.6924 4.2349 23.696C2.98934 22.2013 1.24557 22.9486 0.747344 23.696C7.5726e-06 24.9415 0 25.938 0 27.9309C0 40.6356 0.747333 54.835 10.2136 66.7923C14.4485 72.2728 22.6692 80.7426 29.3952 88.7142C31.139 82.9846 33.1319 76.5077 36.3704 70.529C32.8828 66.5432 29.1461 62.5574 25.1603 58.8208ZM52.0644 97.4331C51.3171 94.942 50.3206 92.4509 49.3242 90.2089C45.3384 94.942 42.5982 100.173 40.3561 105.405C44.591 113.875 46.8331 119.853 47.8295 125.583C48.3277 128.323 48.826 129.569 50.3206 129.569C51.5662 129.569 52.8118 128.572 53.0609 125.334C54.3064 117.113 54.8047 106.65 52.0644 97.4331Z" fill="#FF623F"/>
</svg>
