<svg width="41" height="41" viewBox="0 0 41 41" fill="none" xmlns="http://www.w3.org/2000/svg">
<circle opacity="0.2" cx="20.5" cy="20.5" r="20.5" fill="#56CCF2"/>
<path fill-rule="evenodd" clip-rule="evenodd" d="M15 14C14.7348 14 14.4804 14.1054 14.2929 14.2929C14.1054 14.4804 14 14.7348 14 15V29C14 29.2652 14.1054 29.5196 14.2929 29.7071C14.4804 29.8946 14.7348 30 15 30H27C27.2652 30 27.5196 29.8946 27.7071 29.7071C27.8946 29.5196 28 29.2652 28 29V15C28 14.7348 27.8946 14.4804 27.7071 14.2929C27.5196 14.1054 27.2652 14 27 14H25C24.4477 14 24 13.5523 24 13C24 12.4477 24.4477 12 25 12H27C27.7957 12 28.5587 12.3161 29.1213 12.8787C29.6839 13.4413 30 14.2043 30 15V29C30 29.7956 29.6839 30.5587 29.1213 31.1213C28.5587 31.6839 27.7957 32 27 32H15C14.2044 32 13.4413 31.6839 12.8787 31.1213C12.3161 30.5587 12 29.7956 12 29V15C12 14.2044 12.3161 13.4413 12.8787 12.8787C13.4413 12.3161 14.2044 12 15 12H17C17.5523 12 18 12.4477 18 13C18 13.5523 17.5523 14 17 14H15Z" fill="#56CCF2"/>
<path fill-rule="evenodd" clip-rule="evenodd" d="M16 12C16 10.8954 16.8954 10 18 10H24C25.1046 10 26 10.8954 26 12V14C26 15.1046 25.1046 16 24 16H18C16.8954 16 16 15.1046 16 14V12ZM24 12H18V14H24V12Z" fill="#56CCF2"/>
</svg>
